# xmcd
#
# Track frame offsets:
#	150
#	13517
#	26048
#	38500
#	52512
#	64616
#	77789
#	91298
#	105720
#	117538
#	130675
#	145103
#	158865
#	171830
#	185778
#	200214
#	213424
#	226737
#	240399
#	254228
#	268630
#	281196
#	293833
#	306453
#	319543
#
# Disc length: 4440 seconds
#
# Revision: 0
# Processed by: cddbd v1.5PL3 Copyright (c) Steve Scherf et al.
# Submitted via: dBpowerAMP V4.0
#
DISCID=6a115619
DTITLE=Various Artist - Sweet Home Chicago - CD1
DYEAR=1900
DGENRE=Blues
TTITLE0=Baby Don´t You Want To Go - Tommy McClennan
TTITLE1=Maxwell Street Blues - Papa Charlie Jackson
TTITLE2=East Chicago Blues - Pinetop And Lindberg
TTITLE3=Chicago Bound Blues - Bessie Smith
TTITLE4=Key To The Highway - Jazz Gillum
TTITLE5=Chicago Mill Blues - Peetie Wheatstraw
TTITLE6=C&A Blues - Big Bill Broonzny
TTITLE7=Boogie Woogie Dance - Tampa Red
TTITLE8=Kid Man Blues - Big Maceo
TTITLE9=Hard Time Blues - Chippie Hill
TTITLE10=Chicago´s Too Much For Me - Sparks Brothers
TTITLE11=Western Union Man - Sonny Boy Williamson
TTITLE12=Creole Queen - Little Bill Gaither
TTITLE13=Jim Crw Blues - Cow Cow Davenport
TTITLE14=Chicago Monkey Man Blues - Rosa Henderson
TTITLE15=Diggin´ My Potatoes - Washboard Sam
TTITLE16=See My Great Mistake - Memphis Slim
TTITLE17=I.C. Blues - Big Bill Broonzy
TTITLE18=Drivin´ Wheel - Roosevelt Sykes
TTITLE19=Chicago Blues - Big Boy Crudup
TTITLE20=Me and My Chauffeur - Memphis Minnie
TTITLE21=Friar´s Point Blues - Robert Nighthawk
TTITLE22=Little Low Woman Blues - Sonny Boy Williamson
TTITLE23=Take A Little Walk With Me - Robert Lockwood
TTITLE24=Goin´ To Chicago Blues - Joe Turner
EXTD=
EXTT0=
EXTT1=
EXTT2=
EXTT3=
EXTT4=
EXTT5=
EXTT6=
EXTT7=
EXTT8=
EXTT9=
EXTT10=
EXTT11=
EXTT12=
EXTT13=
EXTT14=
EXTT15=
EXTT16=
EXTT17=
EXTT18=
EXTT19=
EXTT20=
EXTT21=
EXTT22=
EXTT23=
EXTT24=
PLAYORDER=
